#!OML:ASF F:\VICON\USERDATA\INSTALL\rory3\rory3.ASF
:FULLY-SPECIFIED
:DEGREES
1136
root -1.12656 14.3708 24.4103 70.5397 52.7483 94.1603
lowerback -17.7208 -10.8601 -0.719009
upperback -10.3892 -13.6622 1.69309
thorax -0.881273 -6.64844 -0.123487
lowerneck -3.89744 -9.03239 -11.3072
upperneck 44.7332 -6.20987 -11.5158
head 17.3622 -5.08308 -4.01092
rclavicle 5.725e-014 -3.18055e-015
rhumerus -9.7949 -35.3249 26.6321
rradius 36.3051
rwrist -6.12085
rhand -11.3375 -40.796
rfingers 7.12502
rthumb -165.305 829.745
lclavicle 5.725e-014 -3.18055e-015
lhumerus 2.91311 21.3439 6.92259
lradius 23.498
lwrist 38.2425
lhand -32.3892 -14.0239
lfingers 7.12502
lthumb -5.6245 15.8814
rfemur -42.5651 6.913 32.5412
rtibia 59.6048
rfoot 3.5611 -20.603
rtoes 18.5006
lfemur 1.4118 28.6351 -7.891
ltibia 90.9165
lfoot 7.56372 -2.67307
ltoes 3.85674
1137
root -1.1169 14.3532 24.3415 71.0137 52.0811 94.3738
lowerback -17.8993 -10.8918 -1.19993
upperback -10.4556 -13.6261 1.55414
thorax -0.791634 -6.61515 -0.0437995
lowerneck -3.92962 -8.94889 -11.0597
upperneck 44.6841 -6.04904 -11.6971
head 17.3138 -4.9992 -4.10376
rclavicle -1.39944e-013 9.54166e-015
rhumerus -9.53423 -35.7582 26.23
rradius 36.1422
rwrist -5.31418
rhand -18.1532 -48.2541
rfingers 7.12502
rthumb -171.878 821.922
lclavicle -1.39944e-013 9.54166e-015
lhumerus 2.82582 21.316 6.73397
lradius 23.5412
lwrist 38.3236
lhand -32.3713 -13.8922
lfingers 7.12502
lthumb -5.60727 16.0136
rfemur -42.8376 6.91161 31.9689
rtibia 59.744
rfoot 3.39438 -20.871
rtoes 19.8509
lfemur 0.968193 28.6142 -8.77524
ltibia 91.0072
lfoot 7.44832 -2.49367
ltoes 4.98083
1138
root -1.11201 14.3434 24.2689 71.2057 51.9406 94.3283
lowerback -17.9908 -10.8567 -1.08455
upperback -10.4718 -13.5928 1.55337
thorax -0.78972 -6.60281 -0.10975
lowerneck -4.19204 -8.80261 -10.5432
upperneck 44.8289 -5.66569 -12.1838
head 17.4131 -4.81529 -4.38681
rclavicle -1.74931e-014 -6.36111e-015
rhumerus -9.42427 -35.8494 25.9264
rradius 36.1349
rwrist -5.01829
rhand -16.1135 -45.9521
rfingers 7.12502
rthumb -169.909 824.31
lclavicle -1.74931e-014 -6.36111e-015
lhumerus 2.72391 21.1073 6.54158
lradius 23.6109
lwrist 38.652
lhand -32.7157 -13.3934
lfingers 7.12502
lthumb -5.9397 16.5034
rfemur -42.9878 6.82649 31.9829
rtibia 59.8849
rfoot 3.08473 -21.0061
rtoes 21.1637
lfemur 0.665999 28.5898 -8.92423
ltibia 91.1311
lfoot 7.25476 -2.66605
ltoes 4.99849
1139
root -1.13215 14.3849 24.1426 68.7493 55.5241 92.403
lowerback -16.5578 -10.2706 3.64293
upperback -10.0479 -13.5024 2.23352
thorax -1.97003 -6.73984 -1.52086
lowerneck -4.55256 -8.71581 -10.1995
upperneck 44.8418 -5.36827 -12.5902
head 17.4811 -4.68811 -4.61347
rclavicle 2.35361e-013 6.99722e-014
rhumerus -9.41446 -36.1383 25.8364
rradius 36.1384
rwrist -4.77708
rhand -16.225 -45.8719
rfingers 7.12502
rthumb -170.017 824.385
lclavicle 2.35361e-013 6.99722e-014
lhumerus 2.68247 21.2305 6.5856
lradius 23.5857
lwrist 38.5565
lhand -33.0584 -13.0225
lfingers 7.12502
lthumb -6.27056 16.8647
rfemur -41.2083 5.95001 36.192
rtibia 59.5112
rfoot 2.67673 -20.8915
rtoes 21.0626
lfemur 2.21465 28.3699 -3.31601
ltibia 91.5022
lfoot 6.71837 -3.90116
ltoes 4.23149
1140
root -1.11418 14.3428 24.0961 70.1617 53.3452 93.3656
lowerback -17.3229 -10.3996 1.05714
upperback -9.98445 -13.3498 1.98645
thorax -0.967198 -6.55665 -0.630826
lowerneck -5.1448 -8.72828 -10.3073
upperneck 44.8489 -5.30036 -12.491
head 17.657 -4.67484 -4.58801
rclavicle 1.87653e-013 6.36111e-015
rhumerus -9.61253 -36.4213 25.9529
rradius 36.1325
rwrist -4.70434
rhand -20.2217 -50.3261
rfingers 7.12502
rthumb -173.874 819.782
lclavicle 1.87653e-013 6.36111e-015
lhumerus 2.85495 21.9445 6.86392
lradius 23.3635
lwrist 37.6718
lhand -32.8836 -13.2984
lfingers 7.12502
lthumb -6.10183 16.5938
rfemur -42.241 6.33445 33.9782
rtibia 60.1438
rfoot 2.78171 -21.035
rtoes 20.4217
lfemur 1.18595 28.4842 -6.37345
ltibia 91.4754
lfoot 6.78217 -3.25519
ltoes 3.78774
1141
root -1.09642 14.3027 24.0456 71.3347 51.8342 93.8765
lowerback -18.1468 -10.5578 -0.731418
upperback -10.2041 -13.2677 1.84808
thorax -0.426377 -6.44317 0.00663006
lowerneck -4.75248 -8.642 -10.5707
upperneck 44.7275 -5.34284 -12.0372
head 17.5192 -4.66753 -4.29513
rclavicle -2.33771e-013 -1.145e-013
rhumerus -9.50756 -36.2212 25.7924
rradius 36.1119
rwrist -4.42136
rhand -14.8702 -44.5529
rfingers 7.12502
rthumb -168.71 825.771
lclavicle -2.33771e-013 -1.145e-013
lhumerus 2.7068 21.8485 6.79244
lradius 23.272
lwrist 37.2143
lhand -32.4823 -13.9102
lfingers 7.12502
lthumb -5.71438 15.9928
rfemur -43.2641 6.71794 32.5108
rtibia 60.509
rfoot 2.80274 -21.2977
rtoes 20.6073
lfemur -0.0310924 28.5693 -8.58102
ltibia 91.5476
lfoot 6.79155 -2.65922
ltoes 1.6728
1142
root -1.09517 14.2998 23.9502 71.5935 50.4178 94.2623
lowerback -17.7675 -10.5657 -1.67516
upperback -10.2784 -13.16 1.47579
thorax -0.584708 -6.37144 0.197654
lowerneck -4.7177 -8.50675 -10.4195
upperneck 44.5759 -5.21681 -11.9411
head 17.4112 -4.58042 -4.23341
rclavicle -5.40694e-014 -7.95139e-014
rhumerus -9.30509 -36.4214 25.4772
rradius 35.941
rwrist -3.63502
rhand -21.4742 -51.8777
rfingers 7.12502
rthumb -175.084 818.199
lclavicle -5.40694e-014 -7.95139e-014
lhumerus 2.41909 22.0299 6.54761
lradius 23.3007
lwrist 37.0952
lhand -32.3913 -14.1484
lfingers 7.12502
lthumb -5.62654 15.7569
rfemur -43.4113 6.51022 31.0921
rtibia 61.0104
rfoot 1.70696 -21.4929
rtoes 22.7851
lfemur 0.0678169 28.5414 -10.4395
ltibia 91.3046
lfoot 6.63985 -1.9652
ltoes -3.52
1143
root -1.09248 14.3181 23.8747 71.0871 51.9152 93.6309
lowerback -17.6292 -10.3775 0.377843
upperback -10.1033 -13.2206 1.72425
thorax -0.85193 -6.47554 -0.576619
lowerneck -4.96155 -8.35916 -9.76652
upperneck 44.4825 -4.91404 -12.3999
head 17.3555 -4.41335 -4.50905
rclavicle 1.47896e-013 6.36111e-015
rhumerus -9.49126 -35.5943 25.2284
rradius 36.1776
rwrist -4.32392
rhand -22.8059 -53.5352
rfingers 7.12502
rthumb -176.369 816.516
lclavicle 1.47896e-013 6.36111e-015
lhumerus 2.19397 22.0755 6.20236
lradius 23.407
lwrist 37.4145
lhand -32.2524 -14.4289
lfingers 7.12502
lthumb -5.4924 15.48
rfemur -42.8703 6.23979 32.9131
rtibia 60.7828
rfoot 1.15686 -21.8083
rtoes 23.2629
lfemur 0.253139 28.4082 -8.24374
ltibia 91.4589
lfoot 6.43822 -2.5123
ltoes 3.42375
1144
root -1.09234 14.34 23.7966 70.0698 53.4132 92.7346
lowerback -17.0761 -10.1901 2.25651
upperback -10.1342 -13.2287 2.05952
thorax -1.5063 -6.54803 -1.06563
lowerneck -4.08996 -8.18833 -9.43242
upperneck 44.1972 -4.72618 -12.7116
head 16.9367 -4.29499 -4.57711
rclavicle -1.43125e-014 2.8625e-014
rhumerus -9.80757 -33.1916 25.0527
rradius 37.1733
rwrist -6.61872
rhand -20.5464 -51.5664
rfingers 7.12502
rthumb -174.188 818.533
lclavicle -1.43125e-014 2.8625e-014
lhumerus 1.75999 21.0867 5.80873
lradius 23.4877
lwrist 37.9609
lhand -31.8685 -15.3041
lfingers 7.12502
lthumb -5.12179 14.614
rfemur -41.9467 5.96219 34.8231
rtibia 60.4371
rfoot 1.4004 -21.7489
rtoes 21.7591
lfemur 0.816966 28.2016 -5.93016
ltibia 91.5213
lfoot 6.24711 -3.05196
ltoes 2.5458
1145
root -1.09236 14.3462 23.7156 70.2316 52.8863 92.797
lowerback -17.05 -9.90906 2.1281
upperback -9.70097 -12.8843 2.01388
thorax -1.01954 -6.36716 -1.04903
lowerneck -5.48366 -8.34093 -9.95749
upperneck 44.2931 -4.85373 -12.1616
head 17.405 -4.39811 -4.37465
rclavicle -5.56597e-014 -1.27222e-014
rhumerus -10.4687 -33.7999 25.736
rradius 37.0381
rwrist -6.55267
rhand -22.2382 -53.4071
rfingers 7.12502
rthumb -175.821 816.654
lclavicle -5.56597e-014 -1.27222e-014
lhumerus 2.40617 22.2867 6.50249
lradius 23.2713
lwrist 37.702
lhand -31.9718 -14.9499
lfingers 7.12502
lthumb -5.22152 14.9658
rfemur -41.8899 5.7674 34.4043
rtibia 60.3975
rfoot 1.57883 -21.463
rtoes 20.999
lfemur 0.614772 27.9658 -6.88227
ltibia 91.4102
lfoot 6.23223 -2.66937
ltoes 2.24664
1146
root -1.08001 14.3173 23.6525 70.8567 51.5612 93.0438
lowerback -17.4469 -10.0675 0.65466
upperback -9.89714 -12.8765 1.85416
thorax -0.744409 -6.31078 -0.522063
lowerneck -5.17712 -8.18148 -9.76092
upperneck 44.3552 -4.65256 -12.2125
head 17.3533 -4.27565 -4.38236
rclavicle -1.55847e-013 4.45278e-014
rhumerus -10.2922 -33.1113 25.3953
rradius 37.0759
rwrist -6.26982
rhand -23.3874 -55.1776
rfingers 7.12502
rthumb -176.931 814.865
lclavicle -1.55847e-013 4.45278e-014
lhumerus 2.0582 21.6354 6.08477
lradius 23.4146
lwrist 38.318
lhand -32.5692 -13.06
lfingers 7.12502
lthumb -5.79833 16.8407
rfemur -42.2956 5.99682 33.2225
rtibia 60.4601
rfoot 1.86789 -21.4168
rtoes 21.0293
lfemur -0.0834617 27.8889 -8.81915
ltibia 91.368
lfoot 6.29815 -2.31582
ltoes 2.19911
